<?xml version="1.0" encoding="utf-8"?>
<!-- Svg Vector Icons : http://www.onlinewebfonts.com/icon -->
<!DOCTYPE svg PUBLIC "-//W3C//DTD SVG 1.1//EN" "http://www.w3.org/Graphics/SVG/1.1/DTD/svg11.dtd">
<svg version="1.1" xmlns="http://www.w3.org/2000/svg" xmlns:xlink="http://www.w3.org/1999/xlink" x="0px" y="0px" viewBox="0 0 1000 1000" enable-background="new 0 0 1000 1000" xml:space="preserve">
<metadata> Svg Vector Icons : http://www.onlinewebfonts.com/icon </metadata>
<g><path d="M935.5,867.6H64.4c-34.9,0-54.4-19.3-54.4-54.4V296c0-35.1,26.3-61.2,61.3-61.2h183.2c19.2-8.4,40.1-25.9,61.9-62.5c27.4-46.1,74.8-39.6,74.8-39.6h217.8c0,0,56.9,0.4,76.5,40c18.2,36.7,38.9,53.9,55.6,62h187.8c34.9,0,61.2,26.2,61.2,61.2v517.2C990,848.3,970.5,867.6,935.5,867.6z M500,773.5c124.8,0,226-101.2,226-226c0-124.8-101.2-224.3-226-224.3c-124.8,0-226,99.5-226,224.3C274,672.3,375.2,773.5,500,773.5z M772.2,323.2c-13.1,0-27.2,14-27.2,27.2c0,13.2,14.1,27.2,27.2,27.2c13.1,0,28.1-13.2,28.1-26.4C800.3,338.1,785.3,323.2,772.2,323.2z M500,377.7c93.7,0,169.8,76.2,169.8,169.8c0,93.6-76,169.5-169.8,169.5c-93.8,0-169.7-75.9-169.7-169.5C330.3,453.9,406.2,377.7,500,377.7z M91.7,153.1h142.9v61.2H91.7V153.1L91.7,153.1z" fill="#FFFFFF"/></g>
</svg>
