<?xml version="1.0" encoding="iso-8859-1"?>
<!-- Generator: Adobe Illustrator 18.1.1, SVG Export Plug-In . SVG Version: 6.00 Build 0)  -->
<svg xmlns="http://www.w3.org/2000/svg" xmlns:xlink="http://www.w3.org/1999/xlink" version="1.1" id="Capa_1" x="0px" y="0px" viewBox="0 0 210.723 210.723" style="enable-background:new 0 0 210.723 210.723;" xml:space="preserve" width="512px" height="512px">
<g>
	<g>
		<path d="M105.884,29.837c-25.213,0-45.723,22.994-45.723,51.249c0,19.884,10.393,38.136,26.483,46.5    c0.354,0.19,0.759,0.283,1.185,0.283l0.111,0.004c1.428,0,2.466-1.059,2.466-2.52c0-0.741-0.319-1.439-0.812-1.843    c-6.539-9.062-12.032-23.191-1.113-39.12c4.602-0.483,19.025-2.834,28.012-13.718l7.057,17.583    c0.089,0.175,7.827,18.746,0.021,34.944c-0.49,1.009-0.258,2.197,0.562,2.949c0.469,0.433,1.077,0.673,1.714,0.673    c0.447,0,0.895-0.125,1.281-0.358c13.528-7.97,22.583-22.865,24.207-39.843c0.179-1.818,0.261-3.683,0.261-5.54    C151.597,52.835,131.093,29.837,105.884,29.837z M85.051,80.496c-8.478,11.739-10.178,23.9-5.086,36.182    c-9.28-8.747-14.763-21.888-14.763-35.588c0-25.481,18.249-46.21,40.684-46.21c22.422,0,40.666,20.729,40.666,46.21    c0,1.686-0.079,3.382-0.24,5.06c-1.188,12.365-6.771,23.699-15.385,31.34c3.811-15.815-2.441-30.545-2.716-31.175l-8.768-21.831    c-0.361-0.891-1.174-1.5-2.147-1.571c-0.068-0.004-0.125-0.004-0.193-0.004c-0.895,0-1.729,0.472-2.176,1.238    c-8.328,14.162-27.761,15.296-27.969,15.31C86.193,79.497,85.492,79.88,85.051,80.496z" fill="#FFFFFF"/>
		<path d="M105.365,0C47.262,0,0,47.262,0,105.361s47.262,105.361,105.369,105.361    c58.092,0,105.354-47.262,105.354-105.361S163.46,0,105.365,0z M48.415,156.063c0.519-0.651,3.378-3.987,9.119-6.181    c5.035-1.55,17.504-5.687,24.333-10.629c0.311-0.183,0.623-0.515,0.877-0.777c0.354-0.376,0.383-0.694,0.408-0.927    c0.018-0.24,0.047-0.465,0.598-0.988l0.673-0.623l0.655,0.63c6.195,5.83,14.616,7.902,20.432,7.902    c7.798,0,15.539-2.663,20.704-7.115l0.501-0.422l1.313,0.641c0.372,0.347,0.644,0.637,0.88,0.895    c0.458,0.494,0.82,0.884,1.41,1.167l1.646,1.052c1.167,0.694,2.391,1.36,3.754,2.026c1.432,0.626,2.634,1.095,3.897,1.517    c0.637,0.215,6.392,2.094,13.052,5.175l1.22,0.379c6.528,2.491,9.291,6.045,9.291,6.045c3.726,5.533,6.71,14.029,8.876,25.299    c-18.47,16.269-42.145,25.234-66.688,25.234c-24.121,0-47.491-8.7-65.829-24.494C41.683,170.31,44.682,161.621,48.415,156.063z     M167.483,152.269c-1.84-2.29-5.894-5.536-11.789-7.788l-0.927-0.272c-6.216-2.87-11.792-4.76-13.417-5.293    c-1.253-0.415-2.312-0.859-3.235-1.27c-6.732-3.314-7.612-5.257-7.752-5.705l-0.48-1.12l-2.512-1.142l-0.222,0.215    c-0.104,0.104-11.477,10.812-21.992,9.974c-10.615-0.816-19.626-8.997-19.719-9.069l-0.086-0.086l-2.867-0.676l-0.769,1.113    c-0.147,0.215-0.326,0.537-0.372,0.809c-1.17,3.332-14.201,9.148-25.625,12.626c-8.246,3.131-11.828,8.16-11.857,8.196    c-3.776,5.612-6.846,13.915-9.122,24.683c-19.594-19.19-30.381-44.757-30.381-72.103c0-55.694,45.315-101.002,101.009-101.002    s101.009,45.308,101.009,101.002c0,26.931-10.497,52.223-29.576,71.319c-2.265-10.454-5.261-18.492-8.926-23.95L167.483,152.269z" fill="#FFFFFF"/>
	</g>
</g>
<g>
</g>
<g>
</g>
<g>
</g>
<g>
</g>
<g>
</g>
<g>
</g>
<g>
</g>
<g>
</g>
<g>
</g>
<g>
</g>
<g>
</g>
<g>
</g>
<g>
</g>
<g>
</g>
<g>
</g>
</svg>
