<?xml version="1.0" encoding="iso-8859-1"?>
<!-- Generator: Adobe Illustrator 19.0.0, SVG Export Plug-In . SVG Version: 6.00 Build 0)  -->
<svg xmlns="http://www.w3.org/2000/svg" xmlns:xlink="http://www.w3.org/1999/xlink" version="1.1" id="Layer_1" x="0px" y="0px" viewBox="0 0 502.002 502.002" style="enable-background:new 0 0 502.002 502.002;" xml:space="preserve" width="512px" height="512px">
<g>
	<g>
		<g>
			<path d="M456.571,190.144H10c-5.523,0-10,4.478-10,10c0,62.312,24.266,120.895,68.328,164.958     c44.062,44.061,102.645,68.327,164.958,68.327s120.896-24.266,164.957-68.327c44.062-44.063,68.328-102.646,68.328-164.958     C466.571,194.622,462.093,190.144,456.571,190.144z M233.285,413.429c-114.254,0-207.813-90.304-213.054-203.285h426.108     C441.099,323.125,347.539,413.429,233.285,413.429z" fill="#fcf1eb"/>
			<path d="M86.004,318.137c14.249,18.467,31.571,33.955,51.484,46.035c1.621,0.983,3.41,1.451,5.177,1.451     c3.379,0,6.678-1.714,8.559-4.814c2.865-4.721,1.359-10.872-3.363-13.736c-17.799-10.798-33.283-24.643-46.023-41.154     c-3.373-4.371-9.653-5.183-14.026-1.808C83.44,307.485,82.63,313.764,86.004,318.137z" fill="#fcf1eb"/>
			<path d="M51.23,243.427c3.727,17.219,9.874,33.818,18.27,49.335c1.81,3.345,5.25,5.243,8.804,5.243     c1.607,0,3.238-0.389,4.75-1.207c4.857-2.628,6.664-8.697,4.036-13.554c-7.498-13.856-12.985-28.675-16.312-44.048     c-1.169-5.398-6.489-8.828-11.889-7.658C53.491,232.706,50.062,238.029,51.23,243.427z" fill="#fcf1eb"/>
			<path d="M500.79,104.511l-16.658-30.706c-1.686-3.107-4.885-5.093-8.416-5.225c-3.571-0.131-6.871,1.61-8.783,4.581     l-57.342,89.102c-2.988,4.644-1.647,10.832,2.997,13.821c1.674,1.077,3.548,1.592,5.402,1.592c3.288,0,6.508-1.619,8.419-4.587     l48.199-74.896l8.602,15.856c2.634,4.853,8.702,6.657,13.559,4.021C501.623,115.436,503.424,109.365,500.79,104.511z" fill="#fcf1eb"/>
			<path d="M228.95,389.774c6.686,1.984,13.483,2.935,20.203,2.935c25.872,0,50.581-14.108,63.205-37.765     c7.104-13.313,14.857-27.495,23.363-40.939l46.717-72.592c2.988-4.644,1.647-10.832-2.997-13.821     c-4.645-2.988-10.832-1.646-13.821,2.997l-46.758,72.657c-8.895,14.058-16.863,28.63-24.148,42.282     c-11.451,21.456-36.72,31.998-60.076,25.072c-13.192-3.913-24.07-12.728-30.631-24.822c-6.562-12.095-8.02-26.021-4.107-39.212     c1.57-5.295-1.449-10.861-6.744-12.431c-5.296-1.57-10.86,1.449-12.431,6.743c-5.431,18.314-3.406,37.646,5.702,54.436     C195.535,372.105,210.637,384.342,228.95,389.774z" fill="#fcf1eb"/>
		</g>
	</g>
</g>
<g>
</g>
<g>
</g>
<g>
</g>
<g>
</g>
<g>
</g>
<g>
</g>
<g>
</g>
<g>
</g>
<g>
</g>
<g>
</g>
<g>
</g>
<g>
</g>
<g>
</g>
<g>
</g>
<g>
</g>
</svg>
