<?xml version="1.0" standalone="no"?>
<!DOCTYPE svg PUBLIC "-//W3C//DTD SVG 20010904//EN"
 "http://www.w3.org/TR/2001/REC-SVG-20010904/DTD/svg10.dtd">
<svg version="1.0" xmlns="http://www.w3.org/2000/svg"
 width="369.000000pt" height="368.000000pt" viewBox="0 0 369.000000 368.000000"
 preserveAspectRatio="xMidYMid meet">

<g transform="translate(0.000000,368.000000) scale(0.100000,-0.100000)"
fill="#fff" stroke="none">
<path d="M794 3654 c-25 -100 50 -245 154 -295 129 -63 317 5 351 128 15 52
-4 130 -39 165 -27 26 -34 28 -115 28 -97 0 -118 -8 -140 -50 -20 -40 -19 -76
5 -115 31 -50 49 -52 43 -5 -12 87 28 126 121 117 40 -3 55 -11 78 -36 84 -94
-31 -233 -193 -233 -133 0 -239 114 -239 260 0 63 -14 83 -26 36z"/>
<path d="M1634 3633 c58 -83 95 -157 106 -214 14 -79 80 -205 143 -275 l55
-60 -51 17 c-98 34 -211 17 -261 -39 -11 -13 -21 -42 -23 -69 -6 -58 23 -108
77 -135 96 -49 224 17 189 96 -20 42 -84 60 -113 30 -41 -41 2 -101 50 -69 13
8 24 20 24 25 0 12 -29 40 -42 40 -6 0 -8 3 -5 6 13 14 67 -19 74 -44 18 -73
-105 -117 -183 -65 -60 39 -73 135 -26 183 29 28 86 50 133 50 54 0 139 -34
252 -102 75 -45 153 -83 215 -104 88 -29 94 -33 67 -40 -146 -35 -255 -163
-255 -300 0 -174 122 -294 298 -294 80 0 133 22 185 74 77 76 71 158 -15 226
-61 49 -114 65 -167 50 -109 -29 -144 -135 -70 -209 27 -27 87 -54 98 -45 2 2
-8 13 -22 24 -32 26 -51 79 -38 111 33 87 184 91 228 6 50 -97 -59 -216 -198
-217 -112 0 -198 51 -245 145 -69 143 -7 308 144 382 51 25 67 28 162 28 58 0
121 -6 140 -12 66 -24 251 -263 330 -428 58 -120 74 -186 68 -274 -6 -79 -33
-136 -89 -191 -122 -118 -359 -99 -359 29 0 32 56 71 101 71 66 0 107 -29 100
-72 -2 -12 14 -9 27 4 23 23 14 74 -18 102 -57 47 -150 44 -199 -8 -31 -33
-41 -125 -17 -162 80 -121 386 -59 496 101 53 76 73 147 74 255 0 109 -13 158
-80 290 -104 204 -64 360 91 360 85 0 145 -54 129 -116 -7 -29 -20 -31 -27 -4
-7 29 -62 28 -78 -1 -26 -49 59 -72 101 -27 45 49 14 123 -65 154 -84 32 -172
-2 -210 -82 -13 -28 -16 -53 -12 -103 2 -36 8 -75 13 -86 5 -12 -13 -1 -47 29
-65 59 -142 109 -223 147 -34 15 -80 47 -103 71 -46 47 -93 138 -93 180 0 83
71 154 173 172 55 10 118 -20 141 -69 46 -96 -49 -191 -119 -120 -29 28 -31
42 -9 74 14 19 23 22 55 18 36 -5 38 -4 28 14 -25 47 -98 47 -142 1 -37 -38
-43 -79 -18 -119 41 -66 151 -65 210 2 60 69 33 174 -56 211 -90 38 -226 -14
-268 -102 -18 -37 -22 -96 -10 -137 23 -74 -412 419 -533 605 -20 32 -43 58
-49 58 -7 0 -13 -2 -13 -5 0 -19 173 -253 269 -365 40 -47 152 -168 249 -269
97 -101 167 -181 157 -178 -11 3 -51 8 -89 12 -185 18 -389 125 -533 278 -134
144 -183 312 -137 466 8 29 12 56 9 59 -11 12 -33 -28 -40 -71 -13 -82 -14
-82 -52 -20 -41 70 -62 93 -80 93 -8 0 0 -18 21 -47z m1242 -988 c128 -127
182 -256 171 -415 -5 -89 -24 -145 -69 -211 -42 -62 -52 -63 -22 -1 81 165 4
395 -233 691 l-76 93 74 -38 c50 -26 100 -64 155 -119z"/>
<path d="M2267 3673 c-12 -12 -7 -123 7 -156 19 -45 61 -81 131 -114 52 -24
72 -28 150 -28 78 0 97 4 147 28 31 15 71 44 89 64 56 65 109 213 76 213 -9 0
-17 -15 -21 -41 -22 -139 -150 -249 -291 -249 -118 0 -243 73 -269 157 -8 25
13 81 37 102 10 7 17 17 17 22 0 10 -63 12 -73 2z"/>
<path d="M2635 3670 c3 -5 8 -10 11 -10 2 0 4 5 4 10 0 6 -5 10 -11 10 -5 0
-7 -4 -4 -10z"/>
<path d="M2973 3608 c3 -42 15 -95 27 -123 15 -33 23 -73 24 -117 1 -64 -1
-69 -32 -100 -28 -28 -39 -33 -82 -33 -28 0 -55 6 -62 13 -11 11 -10 13 7 11
39 -6 74 10 81 37 9 34 -20 64 -62 64 -68 0 -88 -68 -33 -114 83 -70 208 10
197 126 -2 21 -2 38 -1 38 1 0 22 -21 45 -46 24 -26 68 -63 98 -83 75 -50 112
-105 118 -176 5 -63 -9 -88 -65 -111 -68 -29 -134 -4 -148 56 -12 52 58 103
93 68 30 -30 -3 -87 -39 -68 -15 9 -19 7 -19 -5 0 -8 12 -20 26 -25 33 -13 73
5 93 42 14 25 14 29 -5 55 -32 43 -103 44 -144 3 -30 -30 -27 -94 5 -124 47
-44 143 -36 195 15 46 46 41 122 -12 201 l-18 26 57 -17 c168 -51 283 -155
283 -255 0 -55 -38 -78 -120 -74 -36 2 -73 8 -82 12 -28 13 -22 -12 11 -45 25
-24 38 -29 78 -29 27 0 58 7 70 15 27 19 63 93 63 129 0 66 -77 159 -171 207
l-51 26 49 12 c119 30 185 104 186 209 0 83 -33 137 -110 176 -39 20 -112 21
-156 2 -45 -18 -87 -71 -87 -107 0 -45 64 -109 115 -115 103 -13 158 104 73
156 -37 22 -49 18 -25 -8 18 -19 22 -59 9 -78 -14 -22 -55 -36 -85 -30 -44 9
-67 34 -67 71 0 96 146 146 242 82 36 -24 78 -97 78 -137 0 -88 -67 -175 -154
-200 -111 -31 -253 17 -356 120 -76 76 -112 150 -118 246 -2 41 -9 74 -15 74
-6 0 -8 -27 -4 -72z"/>
<path d="M3006 3660 c23 -91 101 -137 162 -94 35 24 46 62 27 91 -14 21 -23
24 -63 21 -41 -3 -48 -7 -56 -30 -14 -39 16 -71 61 -66 25 3 30 1 21 -9 -31
-37 -107 1 -139 71 -11 23 -16 30 -13 16z"/>
<path d="M295 3485 c-52 -18 -95 -66 -95 -105 0 -46 29 -108 62 -131 61 -44
176 -19 202 43 16 36 11 60 -15 84 -18 16 -19 16 -19 -7 0 -32 -9 -43 -49 -64
-23 -11 -47 -15 -73 -12 -55 7 -78 31 -78 79 0 70 63 108 179 108 73 0 120
-16 177 -59 184 -139 177 -381 -24 -766 -63 -120 -72 -132 -113 -152 -133 -66
-294 -55 -408 27 -29 21 -41 26 -41 16 0 -37 140 -106 215 -106 19 0 35 -3 35
-7 0 -5 -29 -21 -63 -36 -81 -36 -187 -115 -187 -139 0 -14 15 -6 67 36 37 30
104 73 148 95 83 43 249 96 238 77 -4 -6 -50 -76 -104 -156 -189 -280 -354
-581 -347 -630 2 -18 17 5 61 95 32 65 83 162 114 215 59 101 213 340 219 340
2 0 1 -13 -2 -29 -19 -94 78 -195 201 -208 65 -7 113 8 151 48 25 27 29 38 29
90 0 56 -3 63 -32 89 -70 63 -174 61 -214 -3 -34 -55 -10 -115 60 -144 56 -24
121 6 121 56 0 11 -4 11 -19 -3 -26 -23 -60 -17 -84 15 -25 35 -15 65 27 86
30 14 36 14 65 -2 39 -20 63 -71 55 -115 -9 -44 -56 -87 -103 -95 -79 -13
-185 35 -214 98 -45 95 13 251 117 318 65 41 141 113 193 183 l43 58 0 -68 c0
-46 7 -83 19 -110 50 -110 195 -138 276 -54 50 52 33 126 -34 151 -32 13 -73
-14 -69 -44 5 -33 68 -31 84 2 12 23 12 23 23 3 30 -56 -8 -121 -84 -142 -39
-11 -51 -10 -90 5 -109 41 -144 189 -86 358 74 213 -13 475 -187 570 -99 54
-258 73 -347 42z m399 -112 c61 -61 95 -118 118 -202 44 -160 10 -314 -105
-467 -39 -51 -178 -176 -166 -148 2 5 28 55 57 112 117 229 163 404 142 538
-12 77 -39 135 -83 182 -48 50 -17 38 37 -15z"/>
<path d="M1305 3136 c-80 -38 -145 -101 -178 -174 -17 -38 -22 -67 -22 -147 0
-117 16 -172 77 -267 79 -121 102 -230 61 -286 -36 -49 -83 -74 -128 -69 -22
3 -49 8 -60 12 -16 6 -18 5 -8 -5 7 -7 36 -15 65 -18 44 -3 59 0 88 20 75 51
97 123 65 213 -19 53 -19 53 13 23 44 -42 146 -103 212 -128 108 -40 200 -155
200 -247 0 -73 -73 -133 -162 -133 -50 0 -82 18 -103 60 -21 41 -19 64 11 100
22 25 32 30 53 25 14 -3 35 -15 46 -26 18 -18 19 -21 4 -47 -11 -21 -23 -27
-47 -27 -37 0 -39 -5 -14 -28 49 -45 142 10 142 82 0 51 -74 92 -137 77 -44
-12 -93 -68 -93 -109 0 -40 35 -96 70 -114 36 -18 109 -15 155 6 124 58 134
175 24 295 l-49 54 48 -5 c244 -24 472 -167 472 -297 0 -40 -10 -56 -54 -79
-33 -18 -58 -22 -128 -22 -77 0 -85 -2 -77 -17 40 -75 169 -86 233 -19 30 32
55 135 43 183 -20 79 -149 183 -272 220 -41 13 -75 25 -75 28 0 3 20 11 44 18
54 14 121 64 161 121 26 37 30 53 34 122 3 70 0 86 -23 134 -72 146 -270 192
-392 92 -64 -53 -82 -131 -42 -182 36 -45 107 -85 152 -85 79 0 143 62 133
126 -9 54 -65 104 -114 104 -16 0 -16 -2 3 -18 49 -39 58 -99 19 -137 -19 -20
-34 -25 -76 -25 -45 0 -55 4 -85 34 -38 38 -43 70 -19 115 36 70 114 107 207
98 117 -10 203 -95 215 -210 11 -111 -35 -196 -138 -252 -45 -24 -69 -30 -141
-33 -74 -4 -101 0 -170 21 -233 73 -397 248 -423 452 l-6 50 26 -53 c36 -71
82 -104 150 -110 50 -4 57 -2 85 26 62 63 28 152 -59 152 -49 0 -81 -30 -81
-75 0 -24 7 -39 22 -49 25 -18 93 -21 103 -6 3 6 12 10 18 10 7 0 -1 -12 -17
-26 -62 -55 -163 -11 -211 93 -23 47 -26 66 -22 109 7 64 34 118 84 165 77 73
106 81 199 58 82 -21 124 -83 94 -140 -17 -31 8 -23 46 15 41 41 46 89 13 130
-52 67 -151 75 -264 22z"/>
<path d="M75 3014 c-42 -16 -83 -49 -73 -60 4 -3 19 3 35 13 99 69 258 50 327
-39 50 -67 22 -151 -60 -178 -75 -25 -154 21 -154 90 0 33 20 76 44 92 7 5 6
8 -3 8 -27 0 -79 -41 -96 -76 -48 -101 50 -202 172 -179 50 9 137 96 147 147
19 102 -96 198 -234 197 -36 0 -83 -7 -105 -15z"/>
<path d="M3657 2940 c-44 -52 -60 -91 -64 -160 -6 -77 22 -163 68 -214 38 -42
36 -23 -7 60 -34 64 -36 74 -32 145 3 65 8 83 36 129 39 62 38 87 -1 40z"/>
<path d="M3340 2369 c-44 -9 -97 -66 -105 -113 -5 -25 -2 -46 11 -72 29 -58
64 -78 144 -82 68 -4 86 1 192 56 4 2 -10 -27 -33 -65 -52 -89 -78 -178 -83
-283 -12 -248 -177 -479 -392 -550 -85 -29 -223 -25 -296 7 -58 26 -134 95
-159 145 -48 93 -29 208 45 282 53 54 100 70 182 63 103 -8 194 -76 194 -144
0 -92 -127 -148 -199 -88 -25 22 -30 34 -33 78 l-3 52 -22 -35 c-69 -107 26
-211 164 -180 39 8 60 20 82 46 28 31 31 42 31 98 0 49 -5 71 -23 97 -45 67
-117 99 -222 99 -77 0 -130 -24 -181 -83 -47 -54 -64 -102 -64 -184 0 -189
213 -331 439 -293 201 34 371 190 444 408 l24 72 18 -47 c10 -27 37 -78 60
-114 l43 -67 -19 -67 c-10 -38 -26 -107 -34 -154 -34 -188 -36 -192 -73 -234
-44 -48 -122 -87 -175 -87 -77 0 -147 62 -147 131 0 51 13 75 50 94 66 34 141
6 156 -59 l7 -28 -26 17 c-31 20 -63 13 -72 -16 -16 -49 50 -66 84 -23 37 47
20 98 -40 130 -79 40 -190 -37 -176 -123 25 -154 208 -182 343 -51 l41 39 6
-128 c6 -138 29 -247 73 -359 l28 -67 -57 -53 c-176 -164 -415 -174 -550 -24
-103 115 -85 290 35 349 97 46 231 14 264 -65 26 -62 14 -136 -28 -182 -29
-30 -3 -30 42 1 117 79 101 232 -29 276 -51 17 -204 14 -249 -4 -84 -36 -126
-106 -127 -210 0 -59 5 -78 30 -123 35 -65 81 -107 155 -141 48 -23 67 -26
155 -25 71 0 111 5 139 17 22 10 41 15 43 13 3 -2 -3 -18 -11 -35 -20 -38 -20
-111 -1 -159 34 -80 101 -122 195 -122 41 0 60 4 60 13 0 8 -19 12 -63 12 -74
0 -123 27 -156 85 -56 99 -34 183 67 264 37 29 73 60 81 70 13 15 17 13 42
-26 26 -38 29 -40 29 -18 -1 14 -7 34 -15 44 -19 25 -19 50 0 66 8 7 15 24 15
39 0 26 0 26 -22 -7 -25 -40 -27 -38 -63 68 -68 199 -79 426 -32 651 15 70 31
139 37 154 l10 27 35 -26 c44 -34 46 -14 4 30 l-30 31 30 79 c17 44 31 93 30
109 l-1 30 -19 -40 c-10 -22 -26 -64 -36 -92 -9 -29 -20 -53 -24 -53 -12 0
-76 111 -94 165 -53 160 -10 336 125 502 67 83 66 110 -2 48 -135 -121 -270
-149 -353 -71 -30 29 -35 40 -35 80 0 39 6 52 34 84 32 35 38 37 94 37 67 0
102 -21 102 -61 0 -26 -35 -64 -59 -64 -11 0 -9 5 7 16 28 20 28 52 0 63 -47
17 -81 -16 -59 -58 24 -45 100 -33 121 19 27 65 -54 119 -150 99z"/>
<path d="M1015 2335 c-28 -28 -32 -65 -10 -99 14 -21 21 -23 63 -18 56 5 92
34 92 73 0 62 -98 92 -145 44z"/>
<path d="M534 1971 c-89 -23 -195 -107 -210 -166 -3 -14 -4 -52 -2 -84 7 -105
74 -161 200 -169 54 -3 76 0 112 18 50 24 86 72 86 114 l0 28 -26 -32 c-40
-47 -80 -63 -152 -62 -81 1 -144 30 -179 83 -43 65 -17 138 71 198 219 151
496 0 496 -269 0 -88 -26 -147 -93 -213 -89 -87 -280 -158 -419 -156 l-53 1
54 13 c102 25 148 109 91 170 -51 55 -136 52 -169 -6 -12 -22 -12 -29 0 -55 8
-16 21 -29 29 -29 8 0 21 -4 28 -9 37 -23 88 27 62 59 -26 31 -80 12 -80 -28
0 -16 -3 -17 -15 -7 -8 7 -15 25 -15 40 0 63 89 83 141 31 52 -52 28 -114 -56
-146 -73 -28 -203 -17 -284 23 -35 18 -82 46 -104 62 -22 16 -42 28 -45 26 -2
-3 10 -33 27 -68 54 -111 76 -216 75 -363 0 -148 -15 -218 -69 -334 -38 -79
-47 -122 -18 -86 32 40 82 162 97 237 20 95 20 270 2 358 -8 36 -26 94 -40
128 -14 35 -22 62 -18 60 4 -2 30 -15 59 -30 222 -117 550 -79 730 86 65 59
103 129 110 204 11 105 100 179 226 189 51 4 71 1 104 -16 49 -25 83 -65 83
-98 0 -32 -25 -78 -52 -97 -35 -25 -100 -21 -132 9 -33 30 -33 38 1 65 22 17
37 21 71 17 49 -5 55 8 19 41 -28 26 -92 30 -125 6 -44 -30 -20 -129 38 -159
39 -20 105 -19 141 2 16 10 39 37 51 62 20 41 20 47 7 85 -44 127 -271 145
-385 30 -25 -24 -47 -44 -49 -44 -3 0 -5 9 -5 19 0 68 -98 194 -185 239 -54
27 -170 39 -231 23z"/>
<path d="M1465 1511 c-119 -54 -151 -214 -62 -309 l21 -23 -44 8 c-222 40
-418 -77 -437 -260 -11 -106 52 -218 142 -253 66 -25 199 -14 272 21 67 33 87
68 81 140 -7 79 -57 134 -138 149 l-35 7 28 -22 c64 -50 89 -168 46 -223 -34
-43 -90 -66 -162 -66 -52 0 -71 5 -109 29 -91 58 -124 189 -74 296 80 173 322
218 531 99 94 -53 95 -54 84 -100 -19 -79 -22 -284 -5 -384 9 -52 19 -106 22
-119 6 -22 4 -21 -38 11 -56 43 -121 62 -191 56 -70 -6 -110 -35 -133 -94 -16
-42 -16 -50 -3 -87 17 -49 52 -77 107 -84 73 -10 132 34 132 97 0 30 -48 72
-78 68 -33 -4 -50 -31 -33 -52 18 -22 67 -20 80 2 9 14 10 11 10 -18 0 -66
-54 -100 -128 -80 -126 34 -93 222 42 237 71 8 153 -22 207 -77 35 -35 51 -63
74 -130 16 -46 51 -129 79 -183 49 -99 49 -100 33 -133 -13 -29 -13 -34 -1
-34 8 0 19 8 24 17 10 17 12 17 25 0 13 -16 41 -25 34 -9 -2 4 -10 19 -17 35
-19 37 -5 64 84 153 96 95 158 125 273 131 100 5 147 -12 170 -60 26 -54 -24
-117 -93 -117 -51 0 -86 70 -50 100 13 11 14 10 10 -2 -8 -21 23 -50 48 -46
29 4 45 33 31 55 -14 21 -75 23 -99 3 -22 -18 -19 -76 5 -100 36 -36 134 -18
160 29 15 28 12 73 -6 99 -20 28 -47 42 -109 57 l-50 11 67 8 c279 31 558
-134 558 -331 0 -24 4 -33 16 -33 25 0 11 80 -27 158 -57 118 -202 200 -393
224 -189 24 -361 -24 -505 -139 -30 -24 -34 -25 -27 -8 18 47 27 146 22 231
-14 214 -98 405 -235 539 -28 27 -51 55 -51 61 0 6 18 48 40 92 55 109 163
214 246 238 166 48 351 -76 290 -195 -47 -90 -205 -84 -214 9 -2 20 2 36 10
41 26 17 76 9 107 -17 l30 -25 7 25 c9 36 -4 64 -36 81 -61 32 -120 5 -141
-64 -35 -116 127 -187 226 -100 58 51 65 117 20 185 -23 36 -97 74 -171 88
l-69 12 65 18 c125 36 282 21 394 -36 58 -30 136 -107 157 -156 11 -24 19 -64
19 -89 0 -38 -5 -50 -34 -79 -30 -30 -40 -34 -89 -34 -76 0 -109 26 -105 82 2
28 10 45 24 55 20 13 21 12 17 -10 -9 -44 56 -64 81 -25 16 25 -18 58 -61 58
-43 0 -83 -37 -83 -77 0 -81 109 -128 197 -86 26 12 42 30 59 66 l23 50 8 -39
c4 -21 8 -77 8 -124 -1 -70 -5 -95 -27 -141 -86 -187 -309 -265 -468 -164 -76
48 -115 133 -96 208 8 34 57 52 136 51 81 -1 142 -30 173 -81 18 -31 22 -33
27 -17 12 35 -7 88 -45 120 -102 89 -297 34 -320 -90 -15 -80 43 -174 139
-224 44 -23 63 -27 141 -27 80 0 97 3 155 31 78 38 142 99 177 174 22 44 28
73 31 151 9 206 -80 363 -252 445 -157 75 -340 68 -516 -19 -138 -68 -237
-179 -306 -345 -1 -1 -41 19 -89 45 -114 62 -147 102 -153 183 -8 106 51 183
148 196 59 7 108 -19 134 -70 21 -43 13 -75 -26 -99 -44 -28 -65 -29 -88 -5
-23 25 -21 60 6 89 21 23 17 29 -17 29 -44 0 -93 -51 -85 -88 9 -38 37 -58 91
-66 55 -7 126 19 144 52 20 37 13 88 -16 123 -50 59 -132 75 -208 40z m267
-578 c60 -73 108 -164 143 -273 21 -66 28 -112 33 -209 7 -165 -8 -244 -56
-306 l-36 -47 -34 69 c-54 105 -107 249 -133 353 -19 79 -23 123 -23 260 -1
91 3 182 7 203 8 36 9 37 30 22 12 -8 43 -41 69 -72z"/>
<path d="M520 991 c-89 -29 -167 -97 -190 -166 -16 -48 -8 -120 17 -154 55
-74 186 -99 271 -51 29 16 49 37 63 68 19 39 20 48 9 85 l-12 41 -14 -39 c-7
-22 -27 -52 -43 -67 -64 -58 -215 -75 -252 -29 -62 76 -11 208 105 269 44 23
63 27 136 27 113 0 187 -33 264 -116 68 -74 96 -144 103 -259 l5 -85 -20 35
c-40 72 -118 98 -197 66 -34 -15 -65 -59 -65 -94 0 -28 35 -69 66 -76 32 -8
80 9 89 31 3 9 -2 24 -12 35 -33 37 -92 0 -65 -42 16 -26 2 -26 -32 1 -36 28
-36 81 0 114 55 51 154 38 194 -27 17 -27 20 -44 17 -93 -5 -76 -32 -128 -95
-187 -92 -86 -209 -129 -347 -127 -75 1 -168 15 -119 18 84 5 193 84 212 153
22 80 -34 160 -122 173 -128 20 -204 -90 -125 -180 26 -30 37 -35 73 -35 69 0
110 64 73 114 -12 16 -14 16 -26 -7 -22 -41 -92 -62 -119 -35 -20 20 -14 67
12 93 76 76 230 3 213 -102 -9 -52 -42 -89 -109 -122 -129 -65 -260 -28 -405
114 -54 54 -73 67 -73 53 0 -26 94 -117 169 -162 255 -155 595 -122 749 73
131 165 115 439 -34 588 -68 67 -159 106 -259 110 -44 1 -91 -1 -105 -6z"/>
<path d="M3159 219 c-69 -24 -123 -74 -155 -143 -28 -59 -30 -76 -9 -76 10 0
15 10 15 33 0 73 110 177 187 177 43 -1 112 -36 125 -65 8 -19 8 -31 0 -50
-16 -34 -15 -34 8 -28 28 7 60 50 60 80 0 15 -14 39 -34 59 -31 31 -39 34 -87
33 -30 0 -79 -9 -110 -20z"/>
<path d="M3595 224 c-22 -8 -46 -22 -52 -31 -36 -48 9 -113 77 -113 22 0 40 3
40 6 0 4 -11 17 -25 30 -27 25 -32 53 -14 86 9 16 17 19 41 14 21 -4 28 -2 26
7 -6 18 -47 18 -93 1z"/>
<path d="M0 222 c0 -5 11 -14 24 -22 30 -16 50 -61 41 -92 -4 -13 -21 -38 -38
-55 -35 -38 -31 -53 8 -27 61 40 74 127 26 175 -28 27 -61 39 -61 21z"/>
<path d="M1052 214 c-72 -19 -107 -39 -165 -92 -55 -52 -97 -122 -73 -122 8 0
26 20 40 44 46 79 135 136 245 156 146 26 331 -40 446 -159 21 -23 48 -41 60
-41 15 1 6 14 -45 61 -147 138 -344 197 -508 153z"/>
<path d="M2399 86 c-49 -17 -106 -53 -113 -71 -8 -21 65 -20 127 1 53 18 133
15 184 -6 42 -18 52 -6 22 26 -52 57 -143 78 -220 50z"/>
</g>
</svg>
